<svg id="ic_favorite_border_24px" xmlns="http://www.w3.org/2000/svg" width="12.85" height="11.79" viewBox="0 0 12.85 11.79">
  <path id="ic_favorite_border_24px-2" data-name="ic_favorite_border_24px" d="M11.316,3A3.847,3.847,0,0,0,8.425,4.343,3.847,3.847,0,0,0,5.534,3,3.5,3.5,0,0,0,2,6.534c0,2.429,2.184,4.408,5.493,7.414l.932.842.932-.848c3.309-3,5.493-4.979,5.493-7.408A3.5,3.5,0,0,0,11.316,3Zm0,4.547L13.456,5.8l-4.427.732C5.971,3.765,13.456,9.4,13.456,7.547c0-1.285-1.285-1.014,0-1.014.989,0-5.969-1.613-5.628-.732h1.2c.334-.88-3.579.732-2.589.732,1.285,0-.906,1.276-.906,2.561C5.534,10.952,14.374,4.778,11.316,7.547Z" transform="translate(-2 -3)" fill="#fff"/>
</svg>
