<svg xmlns="http://www.w3.org/2000/svg" width="24.637" height="21.811" viewBox="0 0 24.637 21.811">
  <g id="Group_147" data-name="Group 147" transform="translate(-3 10)">
    <g id="Group_46" data-name="Group 46" transform="translate(3 -9)">
      <path id="ic_shopping_basket_24px" d="M17.154,9.292,12.789,2.458a.976.976,0,0,0-.827-.438.962.962,0,0,0-.827.448L6.77,9.292H2a1.023,1.023,0,0,0-1,1.042.914.914,0,0,0,.04.281l2.531,9.658a2,2,0,0,0,1.913,1.521H18.44a2.018,2.018,0,0,0,1.923-1.521l2.531-9.658.03-.281a1.023,1.023,0,0,0-1-1.042Zm-8.182,0,2.99-4.584,2.99,4.584Zm2.99,8.335a2.086,2.086,0,1,1,1.993-2.084A2.046,2.046,0,0,1,11.962,17.626Z" transform="translate(-1 -0.982)" fill="#fff"/>
      <g id="Group_32" data-name="Group 32" transform="translate(17.71)">
        <line id="Line_19" data-name="Line 19" y2="5.927" transform="translate(2.963)" fill="none" stroke="#fff" stroke-linecap="round" stroke-width="2"/>
        <line id="Line_20" data-name="Line 20" x1="5.927" transform="translate(0 2.963)" fill="none" stroke="#fff" stroke-linecap="round" stroke-width="2"/>
      </g>
    </g>
  </g>
</svg>
