<svg xmlns="http://www.w3.org/2000/svg" width="27.343" height="24.661" viewBox="0 0 27.343 24.661">
  <path id="ic_shopping_basket_24px" d="M21.147,11.089,15.7,2.566a1.217,1.217,0,0,0-1.032-.546,1.2,1.2,0,0,0-1.032.559L8.2,11.089H2.243A1.276,1.276,0,0,0,1,12.389a1.14,1.14,0,0,0,.05.351L4.207,24.784a2.492,2.492,0,0,0,2.386,1.9H22.75a2.517,2.517,0,0,0,2.4-1.9L28.306,12.74l.037-.351a1.276,1.276,0,0,0-1.243-1.3Zm-10.2,0,3.729-5.717L18.4,11.089Zm3.729,10.395a2.6,2.6,0,1,1,2.486-2.6A2.552,2.552,0,0,1,14.672,21.484Z" transform="translate(-1 -2.02)" fill="#fff"/>
</svg>
