<svg xmlns="http://www.w3.org/2000/svg" width="25.545" height="25.545" viewBox="0 0 25.545 25.545">
  <path id="Icon_metro-cross" data-name="Icon metro-cross" d="M27.882,22.45h0L20.133,14.7l7.749-7.749h0a.8.8,0,0,0,0-1.129L24.221,2.161a.8.8,0,0,0-1.129,0h0L15.343,9.911,7.594,2.161h0a.8.8,0,0,0-1.129,0L2.8,5.822a.8.8,0,0,0,0,1.129h0L10.553,14.7,2.8,22.45h0a.8.8,0,0,0,0,1.129l3.661,3.661a.8.8,0,0,0,1.129,0h0l7.749-7.749,7.749,7.749h0a.8.8,0,0,0,1.129,0l3.661-3.661a.8.8,0,0,0,0-1.129Z" transform="translate(-2.571 -1.928)" fill="#fff"/>
</svg>
