<svg xmlns="http://www.w3.org/2000/svg" width="241.333" height="241.333" viewBox="0 0 241.333 241.333">
  <path id="Icon_awesome-sad-tear" data-name="Icon awesome-sad-tear" d="M120.667.563A120.667,120.667,0,1,0,241.333,121.229,120.646,120.646,0,0,0,120.667.563ZM159.591,82.3a15.57,15.57,0,1,1-15.57,15.57A15.553,15.553,0,0,1,159.591,82.3ZM73.957,199.079A23.105,23.105,0,0,1,50.6,176.21c0-9.731,13.867-29.388,20.241-37.854a3.874,3.874,0,0,1,6.228,0c6.374,8.466,20.241,28.123,20.241,37.854A23.105,23.105,0,0,1,73.957,199.079Zm7.785-85.634a15.57,15.57,0,1,1,15.57-15.57A15.553,15.553,0,0,1,81.742,113.444Zm82.812,75.027a57.087,57.087,0,0,0-43.888-20.533c-10.315,0-10.315-15.57,0-15.57a72.389,72.389,0,0,1,55.808,26.177C183.189,186.525,171.025,196.305,164.554,188.472Z" transform="translate(0 -0.563)" fill="#fff"/>
</svg>
