<svg xmlns="http://www.w3.org/2000/svg" width="190.243" height="133.17" viewBox="0 0 190.243 133.17">
  <path id="Icon_awesome-money-check-alt" data-name="Icon awesome-money-check-alt" d="M180.73,2.25H9.512A9.513,9.513,0,0,0,0,11.762V125.908a9.513,9.513,0,0,0,9.512,9.512H180.73a9.513,9.513,0,0,0,9.512-9.512V11.762A9.513,9.513,0,0,0,180.73,2.25ZM52.317,90.2v4.792a2.377,2.377,0,0,1-2.378,2.378H45.183A2.377,2.377,0,0,1,42.8,94.993V90.151a17.021,17.021,0,0,1-9.325-3.374,2.381,2.381,0,0,1-.169-3.609L36.8,79.836a2.44,2.44,0,0,1,3.011-.217,7.157,7.157,0,0,0,3.811,1.106h8.356A3.738,3.738,0,0,0,55.488,76.8a3.88,3.88,0,0,0-2.607-3.784L39.505,69.007a13.453,13.453,0,0,1-9.387-12.9A13.237,13.237,0,0,1,42.8,42.712V37.92a2.377,2.377,0,0,1,2.378-2.378h4.756a2.377,2.377,0,0,1,2.378,2.378v4.842a17,17,0,0,1,9.325,3.374,2.381,2.381,0,0,1,.169,3.609l-3.493,3.332a2.44,2.44,0,0,1-3.011.217,7.13,7.13,0,0,0-3.811-1.106H43.137a3.738,3.738,0,0,0-3.508,3.921,3.88,3.88,0,0,0,2.607,3.784l13.376,4.013A13.453,13.453,0,0,1,65,76.8,13.235,13.235,0,0,1,52.317,90.2Zm71.341-4.72a2.377,2.377,0,0,1-2.378,2.378H87.987a2.377,2.377,0,0,1-2.378-2.378V80.725a2.377,2.377,0,0,1,2.378-2.378H121.28a2.377,2.377,0,0,1,2.378,2.378Zm47.561,0a2.377,2.377,0,0,1-2.378,2.378H145.06a2.377,2.377,0,0,1-2.378-2.378V80.725a2.377,2.377,0,0,1,2.378-2.378h23.78a2.377,2.377,0,0,1,2.378,2.378Zm0-28.536a2.377,2.377,0,0,1-2.378,2.378H87.987a2.377,2.377,0,0,1-2.378-2.378V52.189a2.377,2.377,0,0,1,2.378-2.378H168.84a2.377,2.377,0,0,1,2.378,2.378Z" transform="translate(0 -2.25)" fill="#fff"/>
</svg>
