<svg xmlns="http://www.w3.org/2000/svg" width="68.198" height="53.043" viewBox="0 0 68.198 53.043">
  <path id="Icon_awesome-credit-card" data-name="Icon awesome-credit-card" d="M0,49.61a5.685,5.685,0,0,0,5.683,5.683H62.515A5.685,5.685,0,0,0,68.2,49.61V28.771H0Zm22.733-8.051a1.425,1.425,0,0,1,1.421-1.421h16.1a1.425,1.425,0,0,1,1.421,1.421v4.736a1.425,1.425,0,0,1-1.421,1.421h-16.1a1.425,1.425,0,0,1-1.421-1.421Zm-15.155,0A1.425,1.425,0,0,1,9,40.138h8.525a1.425,1.425,0,0,1,1.421,1.421v4.736a1.425,1.425,0,0,1-1.421,1.421H9a1.425,1.425,0,0,1-1.421-1.421ZM68.2,7.933v5.683H0V7.933A5.685,5.685,0,0,1,5.683,2.25H62.515A5.685,5.685,0,0,1,68.2,7.933Z" transform="translate(0 -2.25)"/>
</svg>
