<svg xmlns="http://www.w3.org/2000/svg" width="68.198" height="53.043" viewBox="0 0 68.198 53.043">
  <path id="Icon_awesome-cc-apple-pay" data-name="Icon awesome-cc-apple-pay" d="M35.78,24.368c0,2.036-1.243,3.209-3.434,3.209H29.47V21.159h2.889c2.179,0,3.422,1.16,3.422,3.209ZM41.4,31.78c0,.983.852,1.622,2.19,1.622a2.722,2.722,0,0,0,2.984-2.593V29.9l-2.782.178C42.221,30.181,41.4,30.761,41.4,31.78ZM68.2,7.863V49.539a5.685,5.685,0,0,1-5.683,5.683H5.683A5.685,5.685,0,0,1,0,49.539V7.863A5.685,5.685,0,0,1,5.683,2.18H62.515A5.685,5.685,0,0,1,68.2,7.863ZM15.131,21.858a3.281,3.281,0,0,0,2.617-1.231,3.908,3.908,0,0,0,.912-2.806,3.893,3.893,0,0,0-2.593,1.338,3.714,3.714,0,0,0-.935,2.7Zm7.175,8.821a3.906,3.906,0,0,1-2.344-3.552,3.987,3.987,0,0,1,1.894-3.339,4.076,4.076,0,0,0-3.209-1.74c-1.444-.083-2.676.817-3.363.817s-1.74-.781-2.877-.758a4.246,4.246,0,0,0-3.611,2.2c-1.551,2.676-.4,6.63,1.1,8.809.734,1.077,1.622,2.261,2.782,2.214,1.1-.047,1.539-.71,2.865-.71s1.717.71,2.877.7c1.208-.024,1.954-1.077,2.7-2.155A10.021,10.021,0,0,0,22.306,30.678Zm16.031-6.323a5.069,5.069,0,0,0-5.316-5.3H26.96V35.2h2.51V29.684h3.469A5.128,5.128,0,0,0,38.338,24.356Zm10.656,2.806c0-2.332-1.871-3.836-4.736-3.836-2.664,0-4.629,1.527-4.7,3.611h2.261a2.2,2.2,0,0,1,2.368-1.646c1.539,0,2.392.71,2.392,2.036v.888l-3.126.189c-2.913.178-4.487,1.373-4.487,3.445,0,2.1,1.622,3.481,3.955,3.481a4.134,4.134,0,0,0,3.694-2.06h.047v1.942h2.321V27.162Zm12.1-3.682H58.549L55.6,33.023h-.047L52.6,23.48h-2.64l4.251,11.757-.225.71a2,2,0,0,1-2.119,1.681c-.2,0-.58-.024-.734-.036v1.942a6.134,6.134,0,0,0,.959.059c2.451,0,3.6-.935,4.606-3.765Z" transform="translate(0 -2.18)"/>
</svg>
