<svg xmlns="http://www.w3.org/2000/svg" width="45.455" height="53.694" viewBox="0 0 45.455 53.694">
  <path id="Icon_awesome-paypal" data-name="Icon awesome-paypal" d="M13.186,33.625c-.414,2.273-2.06,12.87-2.546,15.866-.036.213-.118.3-.355.3H1.452A1.439,1.439,0,0,1,.02,48.141L6.958,4.108a2.4,2.4,0,0,1,2.368-2c18.032,0,19.548-.438,24.153,1.35,7.116,2.759,7.767,9.413,5.21,16.611-2.546,7.412-8.584,10.6-16.588,10.691C16.963,30.843,13.872,29.931,13.186,33.625ZM42.276,16.588c-.213-.154-.3-.213-.355.154a27.712,27.712,0,0,1-1.042,3.978c-4.724,13.474-17.819,12.3-24.213,12.3a1.191,1.191,0,0,0-1.291,1.113C12.7,50.758,12.167,54.227,12.167,54.227a1.261,1.261,0,0,0,1.255,1.527h7.518A2.124,2.124,0,0,0,23,53.99c.083-.639-.13.722,1.7-10.81.545-2.6,1.693-2.332,3.469-2.332,8.406,0,14.966-3.41,16.919-13.3.77-4.12.545-8.454-2.818-10.964Z" transform="translate(-0.006 -2.06)"/>
</svg>
