<svg xmlns="http://www.w3.org/2000/svg" width="20.927" height="20.927" viewBox="0 0 20.927 20.927">
  <path id="Icon_awesome-plus" data-name="Icon awesome-plus" d="M19.432,8.221H12.705V1.495A1.5,1.5,0,0,0,11.211,0H9.716A1.5,1.5,0,0,0,8.221,1.495V8.221H1.495A1.5,1.5,0,0,0,0,9.716v1.495a1.5,1.5,0,0,0,1.495,1.495H8.221v6.726a1.5,1.5,0,0,0,1.495,1.495h1.495a1.5,1.5,0,0,0,1.495-1.495V12.705h6.726a1.5,1.5,0,0,0,1.495-1.495V9.716A1.5,1.5,0,0,0,19.432,8.221Z" transform="translate(20.927) rotate(90)" fill="#fff"/>
</svg>
