<svg id="Icon_ionic-ios-checkbox-outline" data-name="Icon ionic-ios-checkbox-outline" xmlns="http://www.w3.org/2000/svg" width="14.897" height="14.897" viewBox="0 0 14.897 14.897">
  <path id="Path_35" data-name="Path 35" d="M18.156,4.5H5.741A1.24,1.24,0,0,0,4.5,5.741V18.156A1.24,1.24,0,0,0,5.741,19.4H18.156A1.24,1.24,0,0,0,19.4,18.156V5.741A1.24,1.24,0,0,0,18.156,4.5ZM18.311,18a.311.311,0,0,1-.31.31H5.9a.311.311,0,0,1-.31-.31V5.9a.311.311,0,0,1,.31-.31H18a.311.311,0,0,1,.31.31Z" transform="translate(-4.5 -4.5)" fill="#fff"/>
  <path id="Path_36" data-name="Path 36" d="M18.815,12.955l-.683-.7a.147.147,0,0,0-.109-.047h0a.141.141,0,0,0-.109.047l-4.733,4.768L11.459,15.3a.15.15,0,0,0-.217,0l-.691.691a.155.155,0,0,0,0,.221l2.173,2.173a.687.687,0,0,0,.454.221.72.72,0,0,0,.45-.213h0l5.187-5.214A.166.166,0,0,0,18.815,12.955Z" transform="translate(-7.192 -7.954)" fill="#fff"/>
</svg>
