<svg id="ic_favorite_border_24px" xmlns="http://www.w3.org/2000/svg" width="15.63" height="15.133" viewBox="0 0 66.63 61.133">
  <path id="ic_favorite_border_24px-2" data-name="ic_favorite_border_24px" d="M50.307,3A19.95,19.95,0,0,0,35.315,9.963,19.95,19.95,0,0,0,20.323,3,18.145,18.145,0,0,0,2,21.323C2,33.916,13.327,44.177,30.484,59.769l4.831,4.364,4.831-4.4C57.3,44.177,68.63,33.916,68.63,21.323A18.145,18.145,0,0,0,50.307,3ZM35.648,54.8l-.333.333-.333-.333C19.124,40.446,8.663,30.951,8.663,21.323a11.386,11.386,0,0,1,11.66-11.66,13.024,13.024,0,0,1,11.893,7.862h6.23a12.942,12.942,0,0,1,11.86-7.862,11.386,11.386,0,0,1,11.66,11.66C61.967,30.951,51.506,40.446,35.648,54.8Z" transform="translate(-2 -3)" fill="#fff"/>
</svg>
